<svg xmlns="http://www.w3.org/2000/svg" xmlns:xlink="http://www.w3.org/1999/xlink" width="300" zoomAndPan="magnify" viewBox="0 0 224.87999 60" height="80" preserveAspectRatio="xMidYMid meet" version="1.0"><defs><g/><clipPath id="id1"><path d="M 167 0.015625 L 198 0.015625 L 198 45 L 167 45 Z M 167 0.015625 " clip-rule="nonzero"/></clipPath></defs><g fill="rgb(0%, 0%, 0%)" fill-opacity="1"><g transform="translate(72.770437, 44.433457)"><g><path d="M 9.679688 2.230469 L 2.773438 6.199219 C 4.894531 10.710938 8.917969 14.519531 17.453125 14.519531 C 26.371094 14.519531 33.113281 9.40625 33.113281 0.109375 L 33.113281 -29.035156 L 24.796875 -29.035156 L 24.796875 -25.503906 L 24.6875 -25.503906 C 21.695312 -29.089844 17.671875 -29.472656 15.878906 -29.472656 C 7.503906 -29.472656 2.175781 -22.132812 2.175781 -14.789062 C 2.175781 -6.632812 7.832031 -0.21875 16.203125 -0.21875 C 18.269531 -0.21875 21.96875 -0.707031 24.578125 -4.078125 L 24.6875 -4.078125 L 24.6875 0.328125 C 24.6875 5.003906 21.585938 7.125 17.398438 7.125 C 13.050781 7.125 10.929688 4.730469 9.679688 2.230469 Z M 24.902344 -14.789062 C 24.902344 -10.441406 21.75 -7.613281 17.835938 -7.613281 C 13.867188 -7.613281 10.765625 -10.441406 10.765625 -14.789062 C 10.765625 -19.03125 13.921875 -21.914062 17.835938 -21.914062 C 21.804688 -21.914062 24.902344 -19.085938 24.902344 -14.789062 Z M 24.902344 -14.789062 "/></g></g></g><g fill="rgb(0%, 0%, 0%)" fill-opacity="1"><g transform="translate(105.064702, 44.433457)"><g><path d="M 10.765625 -12.179688 L 31.863281 -12.179688 C 31.972656 -13.160156 31.972656 -14.191406 31.972656 -15.226562 C 31.972656 -23.816406 26.15625 -29.742188 17.507812 -29.742188 C 9.136719 -29.742188 2.121094 -22.945312 2.121094 -14.574219 C 2.121094 -5.546875 9.242188 0.652344 18.054688 0.652344 C 23.925781 0.652344 28.113281 -1.523438 30.558594 -5.925781 L 24.414062 -9.949219 C 23.109375 -7.777344 20.390625 -6.472656 17.945312 -6.472656 C 14.410156 -6.472656 11.308594 -8.535156 10.765625 -12.179688 Z M 23.492188 -17.78125 L 10.984375 -17.78125 C 11.308594 -19.683594 13.484375 -22.839844 17.292969 -22.839844 C 21.53125 -22.839844 23.328125 -19.902344 23.492188 -17.78125 Z M 23.492188 -17.78125 "/></g></g></g><g fill="rgb(0%, 0%, 0%)" fill-opacity="1"><g transform="translate(134.368655, 44.433457)"><g><path d="M 10.765625 -12.179688 L 31.863281 -12.179688 C 31.972656 -13.160156 31.972656 -14.191406 31.972656 -15.226562 C 31.972656 -23.816406 26.15625 -29.742188 17.507812 -29.742188 C 9.136719 -29.742188 2.121094 -22.945312 2.121094 -14.574219 C 2.121094 -5.546875 9.242188 0.652344 18.054688 0.652344 C 23.925781 0.652344 28.113281 -1.523438 30.558594 -5.925781 L 24.414062 -9.949219 C 23.109375 -7.777344 20.390625 -6.472656 17.945312 -6.472656 C 14.410156 -6.472656 11.308594 -8.535156 10.765625 -12.179688 Z M 23.492188 -17.78125 L 10.984375 -17.78125 C 11.308594 -19.683594 13.484375 -22.839844 17.292969 -22.839844 C 21.53125 -22.839844 23.328125 -19.902344 23.492188 -17.78125 Z M 23.492188 -17.78125 "/></g></g></g><g clip-path="url(#id1)"><g fill="rgb(0%, 0%, 0%)" fill-opacity="1"><g transform="translate(163.672607, 44.433457)"><g><path d="M 12.398438 -13.757812 L 12.613281 -13.757812 L 22.890625 0 L 33.605469 0 L 21.585938 -15.660156 L 33.277344 -29.035156 L 22.457031 -29.035156 L 12.398438 -17.617188 L 12.398438 -44.316406 L 3.914062 -44.316406 L 3.914062 0 L 12.398438 0 Z M 12.398438 -13.757812 "/></g></g></g></g><g fill="rgb(0%, 0%, 0%)" fill-opacity="1"><g transform="translate(192.541594, 44.433457)"><g><path d="M 25.773438 -8.753906 C 25.773438 -14.027344 21.53125 -16.746094 14.574219 -18.214844 C 11.691406 -18.8125 10.765625 -19.738281 10.765625 -20.878906 C 10.765625 -22.023438 12.015625 -23 13.8125 -23 C 16.476562 -23 18.105469 -21.914062 19.085938 -20.226562 L 25.230469 -23.871094 C 23.4375 -27.296875 19.574219 -29.742188 14.027344 -29.742188 C 8.15625 -29.742188 2.882812 -26.101562 2.882812 -20.554688 C 2.882812 -14.789062 7.832031 -12.34375 13.214844 -11.148438 C 17.238281 -10.277344 17.835938 -9.296875 17.835938 -8.320312 C 17.835938 -7.230469 16.476562 -6.199219 14.300781 -6.199219 C 11.09375 -6.199219 8.808594 -7.667969 7.777344 -9.734375 L 1.523438 -6.035156 C 3.644531 -2.011719 7.394531 0.652344 14.191406 0.652344 C 21.476562 0.652344 25.773438 -3.316406 25.773438 -8.753906 Z M 25.773438 -8.753906 "/></g></g></g><g fill="rgb(0%, 0%, 0%)" fill-opacity="1"><g transform="translate(8.095679, 44.433457)"><g><path d="M 9.679688 2.230469 L 2.773438 6.199219 C 4.894531 10.710938 8.917969 14.519531 17.453125 14.519531 C 26.371094 14.519531 33.113281 9.40625 33.113281 0.109375 L 33.113281 -29.035156 L 24.796875 -29.035156 L 24.796875 -25.503906 L 24.6875 -25.503906 C 21.695312 -29.089844 17.671875 -29.472656 15.878906 -29.472656 C 7.503906 -29.472656 2.175781 -22.132812 2.175781 -14.789062 C 2.175781 -6.632812 7.832031 -0.21875 16.203125 -0.21875 C 18.269531 -0.21875 21.96875 -0.707031 24.578125 -4.078125 L 24.6875 -4.078125 L 24.6875 0.328125 C 24.6875 5.003906 21.585938 7.125 17.398438 7.125 C 13.050781 7.125 10.929688 4.730469 9.679688 2.230469 Z M 24.902344 -14.789062 C 24.902344 -10.441406 21.75 -7.613281 17.835938 -7.613281 C 13.867188 -7.613281 10.765625 -10.441406 10.765625 -14.789062 C 10.765625 -19.03125 13.921875 -21.914062 17.835938 -21.914062 C 21.804688 -21.914062 24.902344 -19.085938 24.902344 -14.789062 Z M 24.902344 -14.789062 "/></g></g></g><g fill="rgb(0%, 0%, 0%)" fill-opacity="1"><g transform="translate(40.389944, 44.433457)"><g><path d="M 2.121094 -14.464844 C 2.121094 -5.710938 9.136719 0.652344 17.945312 0.652344 C 26.699219 0.652344 33.820312 -5.871094 33.820312 -14.628906 C 33.820312 -23.273438 26.808594 -29.6875 18.054688 -29.6875 C 9.242188 -29.6875 2.121094 -23.109375 2.121094 -14.464844 Z M 10.820312 -14.574219 C 10.820312 -18.921875 13.976562 -21.96875 17.945312 -21.96875 C 21.914062 -21.96875 25.121094 -18.921875 25.121094 -14.574219 C 25.121094 -10.167969 21.96875 -7.125 18 -7.125 C 14.027344 -7.125 10.820312 -10.167969 10.820312 -14.574219 Z M 10.820312 -14.574219 "/></g></g></g></svg>